<svg id="Calque_1" data-name="Calque 1" xmlns="http://www.w3.org/2000/svg" viewBox="0 0 113.92 17.23"><defs><style>.cls-1{fill:#fff;}</style></defs><title>logo_connect</title><path class="cls-1" d="M189.55,212.13c0.05-1,.09-1.85.09-3.31v-5a23.49,23.49,0,0,0-.36-4.5h3.15c0,0.92-.09,2.2-0.09,3.64v4.68a40.28,40.28,0,0,0,.36,4.5h-3.15Z" transform="translate(-189.28 -199)"/><path class="cls-1" d="M194.75,216.24c0.09-.86.36-3.37,0.36-4.7v-3.78a25.55,25.55,0,0,0-.54-4.68l2.29-.18c0.14,0.41.2,0.83,0.32,1.33a3.59,3.59,0,0,1,3-1.55c2.52,0,4.25,2.11,4.25,5.06,0,2.72-1.67,4.7-4.14,4.7a4.58,4.58,0,0,1-2.79-.9v1.08a28.47,28.47,0,0,0,.18,3.44Zm5-5.78c1.53,0,2.3-1.08,2.3-2.7,0-1.82-1-3.1-2.41-3.1s-2.27,1.26-2.27,3.1S198.22,210.46,199.74,210.46Z" transform="translate(-189.28 -199)"/><path class="cls-1" d="M211.29,204.69a9.8,9.8,0,0,0-1.6-.22c-1,0-1.62.23-1.62,0.72s0.9,1,1.91,1.57,2.27,1.26,2.27,2.88c0,1.78-1.51,2.79-3.82,2.79a10.57,10.57,0,0,1-2.63-.41v-2a9.32,9.32,0,0,0,2.72.59,1.12,1.12,0,0,0,1.3-.92c0-.56-0.77-0.9-1.89-1.55s-2.29-1.6-2.29-3c0-1.62,1.55-2.52,3.64-2.52a15,15,0,0,1,2,.16v1.85Z" transform="translate(-189.28 -199)"/><path class="cls-1" d="M213.16,207.5a4.79,4.79,0,1,1,9.58,0A4.79,4.79,0,1,1,213.16,207.5Zm4.81,3c1.58,0,2.34-1.28,2.34-3s-0.77-2.85-2.34-2.85-2.38,1.13-2.38,2.85S216.46,210.46,218,210.46Z" transform="translate(-189.28 -199)"/><path class="cls-1" d="M229.64,204.69a9.8,9.8,0,0,0-1.6-.22c-1,0-1.62.23-1.62,0.72s0.9,1,1.91,1.57,2.27,1.26,2.27,2.88c0,1.78-1.51,2.79-3.82,2.79a10.57,10.57,0,0,1-2.63-.41v-2a9.32,9.32,0,0,0,2.72.59,1.12,1.12,0,0,0,1.3-.92c0-.56-0.77-0.9-1.89-1.55s-2.29-1.6-2.29-3c0-1.62,1.55-2.52,3.64-2.52a15,15,0,0,1,2,.16v1.85Z" transform="translate(-189.28 -199)"/><path class="cls-1" d="M246.72,212.29a9,9,0,0,1-1.84.14c-4.5,0-7-3.28-7-7.35,0-3.66,2.38-6.09,6.52-6.09a9.37,9.37,0,0,1,2.12.23v2.25a12.88,12.88,0,0,0-2-.23c-2.41,0-3.91,1.49-3.91,4.09,0,2.75,1.62,4.84,4.59,4.84a6.55,6.55,0,0,0,1.55-.14v2.25Z" transform="translate(-189.28 -199)"/><path class="cls-1" d="M247.51,207.5a4.79,4.79,0,1,1,9.58,0A4.79,4.79,0,1,1,247.51,207.5Zm4.81,3c1.58,0,2.34-1.28,2.34-3s-0.77-2.85-2.34-2.85-2.38,1.13-2.38,2.85S250.8,210.46,252.31,210.46Z" transform="translate(-189.28 -199)"/><path class="cls-1" d="M258.7,212.13c0-1,.09-2.05.09-3.08v-2.18a17.1,17.1,0,0,0-.54-3.8l2.29-.18c0.14,0.41.2,0.83,0.32,1.33a4,4,0,0,1,3.24-1.55c2.23,0,3,1.67,3,4.25v2.12c0,0.72.07,2.09,0.18,3.08h-2.52c0-1-.09-2.05-0.09-3.08v-1.76c0-1.57-.34-2.63-1.53-2.63-1.55,0-1.94,1.06-1.94,3.24v1.15c0,0.72.05,2.07,0.09,3.08H258.7Z" transform="translate(-189.28 -199)"/><path class="cls-1" d="M269.38,212.13c0-1,.09-2.05.09-3.08v-2.18a17.1,17.1,0,0,0-.54-3.8l2.29-.18c0.14,0.41.2,0.83,0.32,1.33a4,4,0,0,1,3.24-1.55c2.23,0,3,1.67,3,4.25v2.12c0,0.72.07,2.09,0.18,3.08h-2.52c0-1-.09-2.05-0.09-3.08v-1.76c0-1.57-.34-2.63-1.53-2.63-1.55,0-1.94,1.06-1.94,3.24v1.15c0,0.72.05,2.07,0.09,3.08h-2.61Z" transform="translate(-189.28 -199)"/><path class="cls-1" d="M287.52,212.15a9.47,9.47,0,0,1-2.34.29,5.23,5.23,0,0,1-5.6-5.46,4.21,4.21,0,0,1,4.47-4.3c3.37,0,4.34,2.58,4.34,4.7,0,0.18,0,.4,0,0.58H282c0.05,0.85.7,2.5,3.47,2.5a11.11,11.11,0,0,0,2-.29v2ZM286,206.42a1.84,1.84,0,0,0-1.84-1.76,2,2,0,0,0-2.11,1.76H286Z" transform="translate(-189.28 -199)"/><path class="cls-1" d="M296.52,212.24a6.67,6.67,0,0,1-1.57.2c-2.74,0-5.37-1.62-5.37-5.26s2.83-4.5,5.13-4.5a10.08,10.08,0,0,1,1.84.16v2a13.57,13.57,0,0,0-1.71-.16c-1.75,0-2.83.85-2.83,2.52a3.07,3.07,0,0,0,3.35,3.28c0.38,0,.77-0.05,1.15-0.09v1.87Z" transform="translate(-189.28 -199)"/><path class="cls-1" d="M303,212.35a10,10,0,0,1-1.08.09,2.88,2.88,0,0,1-3.13-3.22v-4.52c-0.4,0-1.06.05-1.73,0.09l0.13-1.8h1.6v-1.8l2.59-.9c-0.07.81-.16,2-0.16,2.39V203a16.32,16.32,0,0,0,1.94-.09l-0.12,1.8h-1.82v3.64c0,1.28,0,2.12,1.33,2.12a3.31,3.31,0,0,0,.59-0.05Z" transform="translate(-189.28 -199)"/></svg>