<svg id="Layer_1" data-name="Layer 1" xmlns="http://www.w3.org/2000/svg" viewBox="0 0 309.51 109.15"><defs><style>.cls-1{fill:#fff;}</style></defs><title>logo</title><path class="cls-1" d="M64.22,80V38L45.58,70.52h-3L24,38V80h-5V28.9h5.18l19.94,35,20.09-35h5.11V80h-5Z" transform="translate(-17.67 -11.15)"/><path class="cls-1" d="M97.92,28.9h4.25L123.41,80h-5.33l-6.62-16h-23L81.94,80h-5.4ZM110.3,60.08L100,34.81,89.57,60.08H110.3Z" transform="translate(-17.67 -11.15)"/><path class="cls-1" d="M144.07,80.74a16.16,16.16,0,0,1-7.2-1.62,18.31,18.31,0,0,1-5.69-4.28,19.68,19.68,0,0,1-3.71-6.16,20.31,20.31,0,0,1-1.33-7.31,21.85,21.85,0,0,1,1.3-7.52A20.11,20.11,0,0,1,131,47.62a16.8,16.8,0,0,1,5.4-4.21,15.3,15.3,0,0,1,6.88-1.55,14.68,14.68,0,0,1,8.42,2.48,18.82,18.82,0,0,1,5.76,6V27.46h4.9V73.69q0,2,1.73,2V80a9.29,9.29,0,0,1-1.73.22,4.49,4.49,0,0,1-3-1.12,3.44,3.44,0,0,1-1.3-2.7V72.75a16.41,16.41,0,0,1-6,5.83A15.87,15.87,0,0,1,144.07,80.74Zm1.08-4.32A11.67,11.67,0,0,0,149,75.7a15.8,15.8,0,0,0,3.85-2,13.27,13.27,0,0,0,3.06-3,8,8,0,0,0,1.55-3.64V55.54a12.9,12.9,0,0,0-2.09-3.64,16.84,16.84,0,0,0-3.13-3,14.76,14.76,0,0,0-3.78-2,11.75,11.75,0,0,0-4-.72,11.51,11.51,0,0,0-5.47,1.3,13.84,13.84,0,0,0-4.21,3.42,15.25,15.25,0,0,0-2.7,4.86,17.23,17.23,0,0,0-.94,5.62,15.73,15.73,0,0,0,4,10.55,14.26,14.26,0,0,0,4.43,3.28A12.57,12.57,0,0,0,145.15,76.42Z" transform="translate(-17.67 -11.15)"/><path class="cls-1" d="M210.74,33.37H192.53V80h-5V33.37H169.27V28.9h41.47v4.46Z" transform="translate(-17.67 -11.15)"/><path class="cls-1" d="M225.36,80.74a18,18,0,0,1-7.52-1.55,18.43,18.43,0,0,1-5.94-4.25A19.71,19.71,0,0,1,208,68.72a20.26,20.26,0,0,1-1.4-7.56,19.8,19.8,0,0,1,1.4-7.45,19.32,19.32,0,0,1,3.89-6.12,18.48,18.48,0,0,1,5.94-4.18,19,19,0,0,1,15,0,17.91,17.91,0,0,1,5.87,4.21,19.77,19.77,0,0,1,5.18,13.46v1.15a3,3,0,0,1-.07.79H211.68a15.8,15.8,0,0,0,1.4,5.58A15.3,15.3,0,0,0,216.14,73,13.69,13.69,0,0,0,220.43,76a12.81,12.81,0,0,0,5.15,1,13.28,13.28,0,0,0,3.6-.5,14.53,14.53,0,0,0,3.31-1.37A12.31,12.31,0,0,0,235.22,73a9.12,9.12,0,0,0,1.87-2.77l4.25,1.15a12.47,12.47,0,0,1-2.45,3.78,17,17,0,0,1-3.67,3,18,18,0,0,1-4.61,1.94A20,20,0,0,1,225.36,80.74Zm13.82-21.46a15.05,15.05,0,0,0-4.43-9.79,13.4,13.4,0,0,0-4.25-2.81,13.22,13.22,0,0,0-5.15-1,13.48,13.48,0,0,0-5.18,1,13.3,13.3,0,0,0-4.28,2.81,13.81,13.81,0,0,0-3,4.32,16.37,16.37,0,0,0-1.33,5.47h27.58Z" transform="translate(-17.67 -11.15)"/><path class="cls-1" d="M248.83,61.16a20.53,20.53,0,0,1,1.37-7.49A18.69,18.69,0,0,1,254,47.51,18,18,0,0,1,260,43.37a18.84,18.84,0,0,1,7.63-1.51,17.51,17.51,0,0,1,9.29,2.41,15.51,15.51,0,0,1,6,6.52l-4.75,1.51a11.42,11.42,0,0,0-4.43-4.5A13.06,13.06,0,0,0,262,47.33a13.7,13.7,0,0,0-4.32,3.13,14.39,14.39,0,0,0-2.88,4.72,17.34,17.34,0,0,0,0,12,15.24,15.24,0,0,0,3,4.86,14.06,14.06,0,0,0,4.36,3.24,12.11,12.11,0,0,0,5.29,1.19,12.9,12.9,0,0,0,3.56-.5,13.72,13.72,0,0,0,3.28-1.4,11.75,11.75,0,0,0,2.59-2.05A6.66,6.66,0,0,0,278.42,70l4.82,1.44a12.27,12.27,0,0,1-2.3,3.71,15.86,15.86,0,0,1-3.56,3,17.46,17.46,0,0,1-4.54,1.94,19.33,19.33,0,0,1-5.15.68,18.22,18.22,0,0,1-13.54-5.8,19.71,19.71,0,0,1-3.92-6.23A20.26,20.26,0,0,1,248.83,61.16Z" transform="translate(-17.67 -11.15)"/><path class="cls-1" d="M322.49,80h-4.9v-21q0-6.41-2.2-9.58A7.34,7.34,0,0,0,309,46.33a11,11,0,0,0-4.14.83A15.35,15.35,0,0,0,301,49.42a15.59,15.59,0,0,0-3.13,3.38,14.3,14.3,0,0,0-2,4.25V80H291V27.46h4.9V51a17,17,0,0,1,6.19-6.7,16,16,0,0,1,8.57-2.45,11.53,11.53,0,0,1,5.47,1.19,10.15,10.15,0,0,1,3.67,3.31,14.51,14.51,0,0,1,2.09,5.11,31.15,31.15,0,0,1,.65,6.59V80Z" transform="translate(-17.67 -11.15)"/><polygon class="cls-1" points="0 81.21 0 78.65 309.5 78.65 309.51 80.65 0 81.21"/><path class="cls-1" d="M250.36,44l-4.25-2.63A20.79,20.79,0,0,1,248.67,38a20.54,20.54,0,0,1,6.75-4.71,21.41,21.41,0,0,1,8.63-1.72,23.4,23.4,0,0,1,3.91.32l-0.84,4.93a18.38,18.38,0,0,0-3.07-.25,16.45,16.45,0,0,0-6.63,1.3,15.55,15.55,0,0,0-5.12,3.57A15.77,15.77,0,0,0,250.36,44Z" transform="translate(-17.67 -11.15)"/><path class="cls-1" d="M240.88,38.38l-4.25-2.63a31.67,31.67,0,0,1,3.9-5.07,31.26,31.26,0,0,1,10.28-7.17A32.63,32.63,0,0,1,264,20.89a35.8,35.8,0,0,1,6,.49l-0.84,4.93a30.83,30.83,0,0,0-5.14-.42,27.68,27.68,0,0,0-11.15,2.2,26.3,26.3,0,0,0-8.65,6A26.64,26.64,0,0,0,240.88,38.38Z" transform="translate(-17.67 -11.15)"/><path class="cls-1" d="M232.65,33.05l-4.25-2.63a41.1,41.1,0,0,1,5.06-6.57,40.57,40.57,0,0,1,13.33-9.3,42.37,42.37,0,0,1,17.08-3.4,46.58,46.58,0,0,1,7.77.63l-0.84,4.93a41.46,41.46,0,0,0-6.93-.56,37.41,37.41,0,0,0-15.08,3,35.6,35.6,0,0,0-11.7,8.15A36.1,36.1,0,0,0,232.65,33.05Z" transform="translate(-17.67 -11.15)"/><path class="cls-1" d="M29.79,115.78V105.43l-4.27,7.84H24.25L20,105.43v10.35H17.69V101.39h2.43l4.76,8.79,4.76-8.79h2.43v14.39H29.79Z" transform="translate(-17.67 -11.15)"/><path class="cls-1" d="M39.77,116a5.08,5.08,0,0,1-2.12-.44,5.18,5.18,0,0,1-1.67-1.2,5.55,5.55,0,0,1-1.1-1.75,5.7,5.7,0,0,1-.4-2.13,5.58,5.58,0,0,1,.4-2.1A5.44,5.44,0,0,1,36,106.65a5.21,5.21,0,0,1,1.67-1.17,5.14,5.14,0,0,1,5.88,1.19A5.57,5.57,0,0,1,45,110.45v0.33a0.81,0.81,0,0,1,0,.22h-9a4.44,4.44,0,0,0,.4,1.57,4.31,4.31,0,0,0,.86,1.25,3.86,3.86,0,0,0,1.21.82,3.61,3.61,0,0,0,1.45.29,3.72,3.72,0,0,0,1-.14,4.09,4.09,0,0,0,.93-0.38,3.46,3.46,0,0,0,.77-0.6,2.54,2.54,0,0,0,.53-0.78l1.2,0.33a3.51,3.51,0,0,1-.69,1.06,4.81,4.81,0,0,1-1,.83,5,5,0,0,1-1.3.55A5.63,5.63,0,0,1,39.77,116Zm3.89-6a4.24,4.24,0,0,0-1.25-2.76,3.77,3.77,0,0,0-1.2-.79,3.71,3.71,0,0,0-1.45-.28,3.78,3.78,0,0,0-1.46.28,3.74,3.74,0,0,0-1.21.79,3.89,3.89,0,0,0-.83,1.22,4.59,4.59,0,0,0-.38,1.54h7.76Z" transform="translate(-17.67 -11.15)"/><path class="cls-1" d="M51.44,116a4.54,4.54,0,0,1-2-.46,5.15,5.15,0,0,1-1.6-1.21,5.53,5.53,0,0,1-1-1.73,5.72,5.72,0,0,1-.38-2.06,6.15,6.15,0,0,1,.36-2.12,5.68,5.68,0,0,1,1-1.75,4.75,4.75,0,0,1,1.52-1.19,4.31,4.31,0,0,1,1.93-.44,4.13,4.13,0,0,1,2.37.7,5.29,5.29,0,0,1,1.62,1.69V101h1.38v13a0.47,0.47,0,0,0,.49.57v1.22a2.63,2.63,0,0,1-.49.06,1.26,1.26,0,0,1-.85-0.31,1,1,0,0,1-.36-0.76v-1a4.62,4.62,0,0,1-1.7,1.64A4.47,4.47,0,0,1,51.44,116Zm0.3-1.22a3.29,3.29,0,0,0,1.08-.2,4.43,4.43,0,0,0,1.08-.56,3.71,3.71,0,0,0,.86-0.83,2.25,2.25,0,0,0,.44-1v-3.26a3.64,3.64,0,0,0-.59-1,4.74,4.74,0,0,0-.88-0.84,4.17,4.17,0,0,0-1.06-.57,3.31,3.31,0,0,0-1.11-.2,3.24,3.24,0,0,0-1.54.36,3.89,3.89,0,0,0-1.19,1,4.28,4.28,0,0,0-.76,1.37,4.85,4.85,0,0,0-.26,1.58,4.43,4.43,0,0,0,1.13,3,4,4,0,0,0,1.25.92A3.54,3.54,0,0,0,51.75,114.77Z" transform="translate(-17.67 -11.15)"/><path class="cls-1" d="M59.71,103v-2h1.38v2H59.71Zm0,12.77V105.22h1.38v10.56H59.71Z" transform="translate(-17.67 -11.15)"/><path class="cls-1" d="M66.78,116a3.73,3.73,0,0,1-1.39-.25,3.49,3.49,0,0,1-1.11-.7,3.15,3.15,0,0,1-1-2.33,2.6,2.6,0,0,1,.32-1.28,3.09,3.09,0,0,1,.91-1,4.46,4.46,0,0,1,1.4-.66,6.43,6.43,0,0,1,1.78-.23,9.78,9.78,0,0,1,1.64.14,7.12,7.12,0,0,1,1.48.41v-1A3.07,3.07,0,0,0,70,106.9a2.9,2.9,0,0,0-2.19-.82,4.64,4.64,0,0,0-1.66.32,8,8,0,0,0-1.72.93L64,106.42a7.13,7.13,0,0,1,4-1.38,4.26,4.26,0,0,1,3.12,1.11,4.12,4.12,0,0,1,1.13,3.08V114a0.48,0.48,0,0,0,.51.57v1.22a3.3,3.3,0,0,1-.53.06,1.19,1.19,0,0,1-.82-0.26,1,1,0,0,1-.31-0.73l0-.83a4.78,4.78,0,0,1-1.83,1.46A5.63,5.63,0,0,1,66.78,116Zm0.32-1.05a4.76,4.76,0,0,0,2-.41,3.23,3.23,0,0,0,1.37-1.07,1.27,1.27,0,0,0,.27-0.39,1,1,0,0,0,.09-0.4v-1.72a8.46,8.46,0,0,0-1.43-.41,8,8,0,0,0-1.51-.14,4.2,4.2,0,0,0-2.37.61,1.85,1.85,0,0,0-.91,1.6,2.19,2.19,0,0,0,.19.91,2.3,2.3,0,0,0,.53.74,2.45,2.45,0,0,0,.8.5A2.7,2.7,0,0,0,67.11,114.93Z" transform="translate(-17.67 -11.15)"/><path class="cls-1" d="M84.19,108.77a1.76,1.76,0,0,1-.53,1.3,1.74,1.74,0,0,1-1.28.53,1.77,1.77,0,0,1-1.29-.53,1.74,1.74,0,0,1-.54-1.3,1.7,1.7,0,0,1,.14-0.69,1.87,1.87,0,0,1,1-1,1.8,1.8,0,0,1,1.4,0,1.74,1.74,0,0,1,.58.4,2,2,0,0,1,.38.58A1.71,1.71,0,0,1,84.19,108.77Z" transform="translate(-17.67 -11.15)"/><path class="cls-1" d="M97,101.39h2l5.67,14.39h-2.39l-1.52-3.91H95.15l-1.5,3.91H91.24Zm3.3,8.79L97.94,104l-2.39,6.18h4.7Z" transform="translate(-17.67 -11.15)"/><path class="cls-1" d="M110.12,116a4.55,4.55,0,0,1-2-.44,5,5,0,0,1-1.58-1.19,5.49,5.49,0,0,1-1-1.75,6.39,6.39,0,0,1,0-4.26,5.56,5.56,0,0,1,1-1.73,4.81,4.81,0,0,1,1.5-1.19,4.37,4.37,0,0,1,4.14.18,4.51,4.51,0,0,1,1.52,1.57V101h2.23v12.16a0.88,0.88,0,0,0,.13.55,0.63,0.63,0,0,0,.48.18v1.9l-0.56.08-0.35,0a1.68,1.68,0,0,1-1.09-.34,1.22,1.22,0,0,1-.47-0.89l0-.79a4.23,4.23,0,0,1-1.6,1.56A4.53,4.53,0,0,1,110.12,116Zm0.55-1.9a3.05,3.05,0,0,0,1-.16,3.48,3.48,0,0,0,.89-0.45,3.16,3.16,0,0,0,.7-0.67,2.4,2.4,0,0,0,.42-0.83V109.2a3.32,3.32,0,0,0-.52-0.93,3.7,3.7,0,0,0-.76-0.73,3.48,3.48,0,0,0-.9-0.47,3,3,0,0,0-1-.16,2.52,2.52,0,0,0-1.23.3,3.16,3.16,0,0,0-1,.81,4,4,0,0,0-.64,1.16,3.92,3.92,0,0,0-.23,1.34,3.74,3.74,0,0,0,.25,1.38,3.59,3.59,0,0,0,.7,1.13,3.42,3.42,0,0,0,1,.77A2.79,2.79,0,0,0,110.67,114.08Z" transform="translate(-17.67 -11.15)"/><path class="cls-1" d="M122.06,115.78l-4.3-10.56h1.42l3.63,9.28,3.65-9.28h1.34l-4.3,10.56h-1.44Z" transform="translate(-17.67 -11.15)"/><path class="cls-1" d="M133.89,116a5.08,5.08,0,0,1-2.12-.44,5.18,5.18,0,0,1-1.67-1.2,5.55,5.55,0,0,1-1.1-1.75,5.7,5.7,0,0,1-.4-2.13,5.58,5.58,0,0,1,.4-2.1,5.44,5.44,0,0,1,1.09-1.72,5.21,5.21,0,0,1,1.67-1.17,5.14,5.14,0,0,1,5.88,1.19,5.57,5.57,0,0,1,1.46,3.79v0.33a0.81,0.81,0,0,1,0,.22h-9a4.44,4.44,0,0,0,.4,1.57,4.31,4.31,0,0,0,.86,1.25,3.86,3.86,0,0,0,1.21.82,3.61,3.61,0,0,0,1.45.29,3.72,3.72,0,0,0,1-.14,4.09,4.09,0,0,0,.93-0.38,3.46,3.46,0,0,0,.77-0.6,2.54,2.54,0,0,0,.53-0.78l1.2,0.33a3.51,3.51,0,0,1-.69,1.06,4.81,4.81,0,0,1-1,.83,5,5,0,0,1-1.3.55A5.63,5.63,0,0,1,133.89,116Zm3.89-6a4.24,4.24,0,0,0-1.25-2.76,3.77,3.77,0,0,0-1.2-.79,3.71,3.71,0,0,0-1.45-.28,3.78,3.78,0,0,0-1.46.28,3.74,3.74,0,0,0-1.21.79,3.89,3.89,0,0,0-.83,1.22,4.59,4.59,0,0,0-.38,1.54h7.76Z" transform="translate(-17.67 -11.15)"/><path class="cls-1" d="M146.49,106.44a4.34,4.34,0,0,0-2.43.77,3.88,3.88,0,0,0-1.46,2v6.56h-1.38V105.22h1.3v2.53a4.8,4.8,0,0,1,1.58-1.9,3.66,3.66,0,0,1,2.13-.69l0.26,0v1.26Z" transform="translate(-17.67 -11.15)"/><path class="cls-1" d="M153.4,115.27l-0.35.16-0.54.2a6.16,6.16,0,0,1-.69.18,4,4,0,0,1-.81.08,3,3,0,0,1-.85-0.12,2,2,0,0,1-.71-0.38,1.85,1.85,0,0,1-.49-0.64,2.06,2.06,0,0,1-.18-0.89v-7.56h-1.46v-1.09h1.46v-3.57h1.38v3.57h2.43v1.09h-2.43v7.17a1.09,1.09,0,0,0,.42.86,1.42,1.42,0,0,0,.86.27,2.59,2.59,0,0,0,1-.19,4.58,4.58,0,0,0,.57-0.27Z" transform="translate(-17.67 -11.15)"/><path class="cls-1" d="M155.12,103v-2h1.38v2h-1.38Zm0,12.77V105.22h1.38v10.56h-1.38Z" transform="translate(-17.67 -11.15)"/><path class="cls-1" d="M163,116a7.34,7.34,0,0,1-2.41-.41,5.79,5.79,0,0,1-2-1.17l0.63-.93a6.87,6.87,0,0,0,1.81,1.09,5.32,5.32,0,0,0,2,.36,3.56,3.56,0,0,0,2-.52,1.67,1.67,0,0,0,.76-1.47,1.27,1.27,0,0,0-.2-0.74,1.76,1.76,0,0,0-.6-0.52,4.71,4.71,0,0,0-1-.39q-0.6-.17-1.39-0.35t-1.58-.45A4.79,4.79,0,0,1,160,110a1.83,1.83,0,0,1-.65-0.7,2.28,2.28,0,0,1-.21-1,3,3,0,0,1,.31-1.4,2.85,2.85,0,0,1,.85-1,3.87,3.87,0,0,1,1.26-.6A5.63,5.63,0,0,1,163,105a5.94,5.94,0,0,1,2.21.39,4.37,4.37,0,0,1,1.6,1l-0.67.81a3.71,3.71,0,0,0-1.43-.91,5.12,5.12,0,0,0-1.75-.3,4.34,4.34,0,0,0-1,.11,2.44,2.44,0,0,0-.82.35,1.74,1.74,0,0,0-.56.62,1.82,1.82,0,0,0-.2.88,1.45,1.45,0,0,0,.14.69,1.21,1.21,0,0,0,.47.46,3.77,3.77,0,0,0,.82.34q0.5,0.15,1.21.31,1,0.24,1.78.49a5.58,5.58,0,0,1,1.29.57,2.24,2.24,0,0,1,.78.79,2.28,2.28,0,0,1,.26,1.13,2.75,2.75,0,0,1-1.11,2.31A4.82,4.82,0,0,1,163,116Z" transform="translate(-17.67 -11.15)"/><path class="cls-1" d="M169.41,103v-2h1.38v2h-1.38Zm0,12.77V105.22h1.38v10.56h-1.38Z" transform="translate(-17.67 -11.15)"/><path class="cls-1" d="M182.7,115.78h-1.38v-5.9a5.15,5.15,0,0,0-.56-2.74,1.9,1.9,0,0,0-1.71-.85,3.51,3.51,0,0,0-1.22.22,4.12,4.12,0,0,0-1.12.63,4.83,4.83,0,0,0-.92,1,3.77,3.77,0,0,0-.59,1.21v6.46h-1.38V105.22h1.26v2.39a5,5,0,0,1,1.85-1.86,5.08,5.08,0,0,1,2.62-.71,3.11,3.11,0,0,1,1.48.32,2.52,2.52,0,0,1,1,.91,4.21,4.21,0,0,1,.53,1.44,10.12,10.12,0,0,1,.16,1.88v6.18Z" transform="translate(-17.67 -11.15)"/><path class="cls-1" d="M189.87,115.92a4.36,4.36,0,0,1-2-.46,5.15,5.15,0,0,1-1.56-1.21,5.53,5.53,0,0,1-1-1.72,5.67,5.67,0,0,1-.36-2,6.24,6.24,0,0,1,.35-2.1,5.38,5.38,0,0,1,1-1.75,4.88,4.88,0,0,1,1.55-1.2,4.44,4.44,0,0,1,2-.45,4.06,4.06,0,0,1,2.35.68,6.53,6.53,0,0,1,1.7,1.71v-2.21h1.24v10.6a4.32,4.32,0,0,1-.42,1.94,4.17,4.17,0,0,1-1.11,1.41,4.75,4.75,0,0,1-1.64.85,6.88,6.88,0,0,1-2,.28,5.81,5.81,0,0,1-2.94-.65,5.18,5.18,0,0,1-1.8-1.74l0.85-.67a3.79,3.79,0,0,0,1.66,1.49,5.26,5.26,0,0,0,2.23.48,4.9,4.9,0,0,0,1.46-.21,3.6,3.6,0,0,0,1.21-.63,3,3,0,0,0,.82-1.05,3.43,3.43,0,0,0,.3-1.49v-2.09a4.4,4.4,0,0,1-1.66,1.6A4.47,4.47,0,0,1,189.87,115.92Zm0.38-1.16a3.34,3.34,0,0,0,1.2-.22,4,4,0,0,0,1.06-.6,3.92,3.92,0,0,0,.8-0.84,2.6,2.6,0,0,0,.43-1v-3.26a4.12,4.12,0,0,0-.61-1.05,4.23,4.23,0,0,0-.87-0.83,4.41,4.41,0,0,0-1-.55,3.28,3.28,0,0,0-1.12-.2,3.31,3.31,0,0,0-1.59.38,3.8,3.8,0,0,0-1.19,1,4.38,4.38,0,0,0-.74,1.38,5,5,0,0,0-.25,1.56,4.37,4.37,0,0,0,.3,1.62,4.24,4.24,0,0,0,.84,1.35,4,4,0,0,0,1.25.91A3.56,3.56,0,0,0,190.25,114.77Z" transform="translate(-17.67 -11.15)"/><path class="cls-1" d="M207.17,108.77a1.76,1.76,0,0,1-.53,1.3,1.74,1.74,0,0,1-1.28.53,1.77,1.77,0,0,1-1.29-.53,1.74,1.74,0,0,1-.54-1.3,1.7,1.7,0,0,1,.14-0.69,1.87,1.87,0,0,1,1-1,1.8,1.8,0,0,1,1.4,0,1.74,1.74,0,0,1,.58.4,2,2,0,0,1,.38.58A1.71,1.71,0,0,1,207.17,108.77Z" transform="translate(-17.67 -11.15)"/><path class="cls-1" d="M226.26,103.4h-4.78v12.38h-2.29V103.4h-4.8v-2h11.87v2Z" transform="translate(-17.67 -11.15)"/><path class="cls-1" d="M230.39,116a5.64,5.64,0,0,1-2.25-.44,5.23,5.23,0,0,1-1.73-1.19,5.33,5.33,0,0,1-1.11-1.74,5.64,5.64,0,0,1-.4-2.11,5.72,5.72,0,0,1,.4-2.12,5.43,5.43,0,0,1,1.11-1.76,5.16,5.16,0,0,1,1.73-1.2,5.69,5.69,0,0,1,2.27-.44,5.46,5.46,0,0,1,2.24.45,5.35,5.35,0,0,1,1.71,1.19,5.08,5.08,0,0,1,1.08,1.72,5.72,5.72,0,0,1,.38,2.06c0,0.16,0,.31,0,0.46s0,0.26,0,.36h-8.49a3.62,3.62,0,0,0,.33,1.28,3.34,3.34,0,0,0,.71,1,3.11,3.11,0,0,0,2.16.86,3.54,3.54,0,0,0,.88-0.11,3.13,3.13,0,0,0,.8-0.32,2.84,2.84,0,0,0,.65-0.52,2.43,2.43,0,0,0,.45-0.67l1.9,0.55a4.42,4.42,0,0,1-1.81,2A5.62,5.62,0,0,1,230.39,116Zm3.22-6.3a3.56,3.56,0,0,0-.33-1.24,3.18,3.18,0,0,0-.7-1,3.14,3.14,0,0,0-1-.62,3.25,3.25,0,0,0-1.2-.22,3.16,3.16,0,0,0-2.17.84,3,3,0,0,0-.69,1,3.7,3.7,0,0,0-.32,1.24h6.4Z" transform="translate(-17.67 -11.15)"/><path class="cls-1" d="M237,110.47a5.77,5.77,0,0,1,.38-2.11,5.16,5.16,0,0,1,2.84-2.93,5.69,5.69,0,0,1,2.27-.44,5.35,5.35,0,0,1,2.83.72,4.57,4.57,0,0,1,1.77,1.91l-2.17.69a2.78,2.78,0,0,0-1-1,2.82,2.82,0,0,0-1.44-.38,3,3,0,0,0-2.25,1,3.52,3.52,0,0,0-.67,1.12,4.07,4.07,0,0,0-.24,1.44,3.94,3.94,0,0,0,.25,1.43,3.66,3.66,0,0,0,.69,1.14,3.16,3.16,0,0,0,1,.76,2.82,2.82,0,0,0,1.23.27,3,3,0,0,0,.81-0.11,2.89,2.89,0,0,0,1.33-.78,1.76,1.76,0,0,0,.38-0.57l2.19,0.65a4.33,4.33,0,0,1-1.76,2,5.46,5.46,0,0,1-2.92.76,5.53,5.53,0,0,1-2.25-.45,5.27,5.27,0,0,1-1.73-1.21,5.45,5.45,0,0,1-1.11-1.75A5.64,5.64,0,0,1,237,110.47Z" transform="translate(-17.67 -11.15)"/><path class="cls-1" d="M258.48,115.78h-2.23v-5.94a3.65,3.65,0,0,0-.52-2.16,1.74,1.74,0,0,0-1.49-.7,2.54,2.54,0,0,0-.93.18,3.34,3.34,0,0,0-.88.52,3.92,3.92,0,0,0-.74.79,3.33,3.33,0,0,0-.49,1v6.3H249V101h2.23v6.32a4.4,4.4,0,0,1,1.65-1.7,4.45,4.45,0,0,1,2.28-.61,3.35,3.35,0,0,1,1.63.35,2.87,2.87,0,0,1,1,.94,3.79,3.79,0,0,1,.54,1.37,8.59,8.59,0,0,1,.15,1.65v6.46Z" transform="translate(-17.67 -11.15)"/><path class="cls-1" d="M270.13,115.78h-1.38v-5.9a5.15,5.15,0,0,0-.56-2.74,1.9,1.9,0,0,0-1.71-.85,3.5,3.5,0,0,0-1.22.22,4.13,4.13,0,0,0-1.13.63,4.82,4.82,0,0,0-.92,1,3.77,3.77,0,0,0-.59,1.21v6.46h-1.38V105.22h1.26v2.39a5,5,0,0,1,1.85-1.86A5.08,5.08,0,0,1,267,105a3.11,3.11,0,0,1,1.48.32,2.52,2.52,0,0,1,1,.91,4.21,4.21,0,0,1,.53,1.44,10.16,10.16,0,0,1,.16,1.88v6.18Z" transform="translate(-17.67 -11.15)"/><path class="cls-1" d="M277.56,116a5,5,0,0,1-2.11-.44,5.17,5.17,0,0,1-1.65-1.19,5.36,5.36,0,0,1-1.08-1.74,5.72,5.72,0,0,1-.38-2.09,5.64,5.64,0,0,1,.39-2.11,5.54,5.54,0,0,1,1.09-1.74,5.3,5.3,0,0,1,1.65-1.2,4.86,4.86,0,0,1,2.09-.45,4.93,4.93,0,0,1,2.1.45,5.27,5.27,0,0,1,1.66,1.2,5.54,5.54,0,0,1,1.09,1.74,5.66,5.66,0,0,1,.39,2.11,5.72,5.72,0,0,1-.38,2.09,5.38,5.38,0,0,1-1.08,1.74,5.14,5.14,0,0,1-1.66,1.19A5.08,5.08,0,0,1,277.56,116Zm-3.83-5.43a4.41,4.41,0,0,0,.3,1.65,4.48,4.48,0,0,0,.82,1.34,3.71,3.71,0,0,0,1.22.9,3.51,3.51,0,0,0,1.49.32,3.4,3.4,0,0,0,1.49-.33,4,4,0,0,0,1.23-.91,4.33,4.33,0,0,0,.83-1.35,4.67,4.67,0,0,0,0-3.31,4.31,4.31,0,0,0-.83-1.36,3.94,3.94,0,0,0-1.23-.91,3.4,3.4,0,0,0-1.49-.33,3.34,3.34,0,0,0-1.48.33,3.91,3.91,0,0,0-1.22.92,4.44,4.44,0,0,0-.83,1.37A4.56,4.56,0,0,0,273.73,110.55Z" transform="translate(-17.67 -11.15)"/><path class="cls-1" d="M285.18,101h1.38v12.4a1.27,1.27,0,0,0,.32.92,1.21,1.21,0,0,0,.91.33,2.74,2.74,0,0,0,.53-0.06,3.48,3.48,0,0,0,.57-0.16l0.24,1.11a4.56,4.56,0,0,1-.94.26,5.56,5.56,0,0,1-1,.1,2,2,0,0,1-1.5-.54,2,2,0,0,1-.55-1.51V101Z" transform="translate(-17.67 -11.15)"/><path class="cls-1" d="M295.13,116a5,5,0,0,1-2.11-.44,5.17,5.17,0,0,1-1.65-1.19,5.36,5.36,0,0,1-1.08-1.74,5.72,5.72,0,0,1-.38-2.09,5.64,5.64,0,0,1,.39-2.11,5.54,5.54,0,0,1,1.09-1.74,5.3,5.3,0,0,1,1.65-1.2,4.86,4.86,0,0,1,2.09-.45,4.93,4.93,0,0,1,2.1.45,5.27,5.27,0,0,1,1.66,1.2,5.54,5.54,0,0,1,1.09,1.74,5.66,5.66,0,0,1,.39,2.11,5.72,5.72,0,0,1-.38,2.09,5.38,5.38,0,0,1-1.08,1.74,5.14,5.14,0,0,1-1.66,1.19A5.08,5.08,0,0,1,295.13,116Zm-3.83-5.43a4.41,4.41,0,0,0,.3,1.65,4.48,4.48,0,0,0,.82,1.34,3.71,3.71,0,0,0,1.22.9,3.51,3.51,0,0,0,1.49.32,3.4,3.4,0,0,0,1.49-.33,4,4,0,0,0,1.23-.91,4.33,4.33,0,0,0,.83-1.35,4.67,4.67,0,0,0,0-3.31,4.31,4.31,0,0,0-.83-1.36,3.94,3.94,0,0,0-1.23-.91,3.4,3.4,0,0,0-1.49-.33,3.34,3.34,0,0,0-1.48.33,3.91,3.91,0,0,0-1.22.92,4.44,4.44,0,0,0-.83,1.37A4.56,4.56,0,0,0,291.3,110.55Z" transform="translate(-17.67 -11.15)"/><path class="cls-1" d="M306.92,115.92a4.37,4.37,0,0,1-2-.46,5.15,5.15,0,0,1-1.56-1.21,5.52,5.52,0,0,1-1-1.72,5.67,5.67,0,0,1-.36-2,6.24,6.24,0,0,1,.35-2.1,5.39,5.39,0,0,1,1-1.75,4.88,4.88,0,0,1,1.55-1.2,4.45,4.45,0,0,1,2-.45,4.07,4.07,0,0,1,2.35.68,6.54,6.54,0,0,1,1.7,1.71v-2.21h1.24v10.6a4.32,4.32,0,0,1-.42,1.94,4.16,4.16,0,0,1-1.11,1.41A4.74,4.74,0,0,1,309,120a6.88,6.88,0,0,1-2,.28,5.81,5.81,0,0,1-2.94-.65,5.17,5.17,0,0,1-1.8-1.74l0.85-.67a3.8,3.8,0,0,0,1.66,1.49,5.26,5.26,0,0,0,2.23.48,4.9,4.9,0,0,0,1.46-.21,3.6,3.6,0,0,0,1.21-.63,3,3,0,0,0,.82-1.05,3.43,3.43,0,0,0,.3-1.49v-2.09a4.4,4.4,0,0,1-1.66,1.6A4.47,4.47,0,0,1,306.92,115.92Zm0.39-1.16a3.34,3.34,0,0,0,1.19-.22,4,4,0,0,0,1.06-.6,3.92,3.92,0,0,0,.8-0.84,2.59,2.59,0,0,0,.42-1v-3.26a4.12,4.12,0,0,0-.61-1.05,4.22,4.22,0,0,0-.87-0.83,4.42,4.42,0,0,0-1-.55,3.28,3.28,0,0,0-1.12-.2,3.31,3.31,0,0,0-1.59.38,3.79,3.79,0,0,0-1.19,1,4.37,4.37,0,0,0-.74,1.38,5,5,0,0,0-.25,1.56,4.37,4.37,0,0,0,.3,1.62,4.25,4.25,0,0,0,.84,1.35,4,4,0,0,0,1.25.91A3.56,3.56,0,0,0,307.31,114.77Z" transform="translate(-17.67 -11.15)"/><path class="cls-1" d="M315.82,119l0.31,0h0.29A1.36,1.36,0,0,0,317,119a1.08,1.08,0,0,0,.42-0.45,7.4,7.4,0,0,0,.46-1q0.25-.65.72-1.74L314,105.22h1.42l3.91,9.28,3.63-9.28h1.32l-5.47,13.62a2.47,2.47,0,0,1-.74,1,2.12,2.12,0,0,1-1.41.44h-0.39l-0.45-.05V119Z" transform="translate(-17.67 -11.15)"/></svg>