<svg id="Layer_1" data-name="Layer 1" xmlns="http://www.w3.org/2000/svg" viewBox="0 0 303.55 69.59"><defs><style>.cls-1{fill:#fff;}</style></defs><title>logo_mobile</title><path class="cls-1" d="M64.22,80V38L45.58,70.52h-3L24,38V80h-5V28.9h5.18l19.94,35,20.09-35h5.11V80h-5Z" transform="translate(-18.94 -11.15)"/><path class="cls-1" d="M97.92,28.9h4.25L123.41,80h-5.33l-6.62-16h-23L81.94,80h-5.4ZM110.3,60.08L100,34.81,89.57,60.08H110.3Z" transform="translate(-18.94 -11.15)"/><path class="cls-1" d="M144.07,80.74a16.16,16.16,0,0,1-7.2-1.62,18.31,18.31,0,0,1-5.69-4.28,19.68,19.68,0,0,1-3.71-6.16,20.31,20.31,0,0,1-1.33-7.31,21.85,21.85,0,0,1,1.3-7.52A20.11,20.11,0,0,1,131,47.62a16.8,16.8,0,0,1,5.4-4.21,15.3,15.3,0,0,1,6.88-1.55,14.68,14.68,0,0,1,8.42,2.48,18.82,18.82,0,0,1,5.76,6V27.46h4.9V73.69q0,2,1.73,2V80a9.29,9.29,0,0,1-1.73.22,4.49,4.49,0,0,1-3-1.12,3.44,3.44,0,0,1-1.3-2.7V72.75a16.41,16.41,0,0,1-6,5.83A15.87,15.87,0,0,1,144.07,80.74Zm1.08-4.32A11.67,11.67,0,0,0,149,75.7a15.8,15.8,0,0,0,3.85-2,13.27,13.27,0,0,0,3.06-3,8,8,0,0,0,1.55-3.64V55.54a12.9,12.9,0,0,0-2.09-3.64,16.84,16.84,0,0,0-3.13-3,14.76,14.76,0,0,0-3.78-2,11.75,11.75,0,0,0-4-.72,11.51,11.51,0,0,0-5.47,1.3,13.84,13.84,0,0,0-4.21,3.42,15.25,15.25,0,0,0-2.7,4.86,17.23,17.23,0,0,0-.94,5.62,15.73,15.73,0,0,0,4,10.55,14.26,14.26,0,0,0,4.43,3.28A12.57,12.57,0,0,0,145.15,76.42Z" transform="translate(-18.94 -11.15)"/><path class="cls-1" d="M210.74,33.37H192.53V80h-5V33.37H169.27V28.9h41.47v4.46Z" transform="translate(-18.94 -11.15)"/><path class="cls-1" d="M225.36,80.74a18,18,0,0,1-7.52-1.55,18.43,18.43,0,0,1-5.94-4.25A19.71,19.71,0,0,1,208,68.72a20.26,20.26,0,0,1-1.4-7.56,19.8,19.8,0,0,1,1.4-7.45,19.32,19.32,0,0,1,3.89-6.12,18.48,18.48,0,0,1,5.94-4.18,19,19,0,0,1,15,0,17.91,17.91,0,0,1,5.87,4.21,19.77,19.77,0,0,1,5.18,13.46v1.15a3,3,0,0,1-.07.79H211.68a15.8,15.8,0,0,0,1.4,5.58A15.3,15.3,0,0,0,216.14,73,13.69,13.69,0,0,0,220.43,76a12.81,12.81,0,0,0,5.15,1,13.28,13.28,0,0,0,3.6-.5,14.53,14.53,0,0,0,3.31-1.37A12.31,12.31,0,0,0,235.22,73a9.12,9.12,0,0,0,1.87-2.77l4.25,1.15a12.47,12.47,0,0,1-2.45,3.78,17,17,0,0,1-3.67,3,18,18,0,0,1-4.61,1.94A20,20,0,0,1,225.36,80.74Zm13.82-21.46a15.05,15.05,0,0,0-4.43-9.79,13.4,13.4,0,0,0-4.25-2.81,13.22,13.22,0,0,0-5.15-1,13.48,13.48,0,0,0-5.18,1,13.3,13.3,0,0,0-4.28,2.81,13.81,13.81,0,0,0-3,4.32,16.37,16.37,0,0,0-1.33,5.47h27.58Z" transform="translate(-18.94 -11.15)"/><path class="cls-1" d="M248.83,61.16a20.53,20.53,0,0,1,1.37-7.49A18.69,18.69,0,0,1,254,47.51,18,18,0,0,1,260,43.37a18.84,18.84,0,0,1,7.63-1.51,17.51,17.51,0,0,1,9.29,2.41,15.51,15.51,0,0,1,6,6.52l-4.75,1.51a11.42,11.42,0,0,0-4.43-4.5A13.06,13.06,0,0,0,262,47.33a13.7,13.7,0,0,0-4.32,3.13,14.39,14.39,0,0,0-2.88,4.72,17.34,17.34,0,0,0,0,12,15.24,15.24,0,0,0,3,4.86,14.06,14.06,0,0,0,4.36,3.24,12.11,12.11,0,0,0,5.29,1.19,12.9,12.9,0,0,0,3.56-.5,13.72,13.72,0,0,0,3.28-1.4,11.75,11.75,0,0,0,2.59-2.05A6.66,6.66,0,0,0,278.42,70l4.82,1.44a12.27,12.27,0,0,1-2.3,3.71,15.86,15.86,0,0,1-3.56,3,17.46,17.46,0,0,1-4.54,1.94,19.33,19.33,0,0,1-5.15.68,18.22,18.22,0,0,1-13.54-5.8,19.71,19.71,0,0,1-3.92-6.23A20.26,20.26,0,0,1,248.83,61.16Z" transform="translate(-18.94 -11.15)"/><path class="cls-1" d="M322.49,80h-4.9v-21q0-6.41-2.2-9.58A7.34,7.34,0,0,0,309,46.33a11,11,0,0,0-4.14.83A15.35,15.35,0,0,0,301,49.42a15.59,15.59,0,0,0-3.13,3.38,14.3,14.3,0,0,0-2,4.25V80H291V27.46h4.9V51a17,17,0,0,1,6.19-6.7,16,16,0,0,1,8.57-2.45,11.53,11.53,0,0,1,5.47,1.19,10.15,10.15,0,0,1,3.67,3.31,14.51,14.51,0,0,1,2.09,5.11,31.15,31.15,0,0,1,.65,6.59V80Z" transform="translate(-18.94 -11.15)"/><path class="cls-1" d="M250.36,44l-4.25-2.63A20.79,20.79,0,0,1,248.67,38a20.54,20.54,0,0,1,6.75-4.71,21.41,21.41,0,0,1,8.63-1.72,23.4,23.4,0,0,1,3.91.32l-0.84,4.93a18.38,18.38,0,0,0-3.07-.25,16.45,16.45,0,0,0-6.63,1.3,15.55,15.55,0,0,0-5.12,3.57A15.77,15.77,0,0,0,250.36,44Z" transform="translate(-18.94 -11.15)"/><path class="cls-1" d="M240.88,38.38l-4.25-2.63a31.67,31.67,0,0,1,3.9-5.07,31.26,31.26,0,0,1,10.28-7.17A32.63,32.63,0,0,1,264,20.89a35.8,35.8,0,0,1,6,.49l-0.84,4.93a30.83,30.83,0,0,0-5.14-.42,27.68,27.68,0,0,0-11.15,2.2,26.3,26.3,0,0,0-8.65,6A26.64,26.64,0,0,0,240.88,38.38Z" transform="translate(-18.94 -11.15)"/><path class="cls-1" d="M232.65,33.05l-4.25-2.63a41.1,41.1,0,0,1,5.06-6.57,40.57,40.57,0,0,1,13.33-9.3,42.37,42.37,0,0,1,17.08-3.4,46.58,46.58,0,0,1,7.77.63l-0.84,4.93a41.46,41.46,0,0,0-6.93-.56,37.41,37.41,0,0,0-15.08,3,35.6,35.6,0,0,0-11.7,8.15A36.1,36.1,0,0,0,232.65,33.05Z" transform="translate(-18.94 -11.15)"/></svg>