<svg id="Layer_1" data-name="Layer 1" xmlns="http://www.w3.org/2000/svg" viewBox="0 0 303.55 69.59"><defs><style>.cls-1{fill:#fff;}</style></defs><title>logo_mobile</title><path class="cls-1" d="M70.34,85.91v-42L51.69,76.41h-3L30.09,43.94v42h-5V34.79h5.18l19.94,35,20.09-35h5.11V85.91h-5Z" transform="translate(-25.05 -17.04)"/><path class="cls-1" d="M104,34.79h4.25l21.24,51.12H124.2l-6.62-16h-23l-6.55,16h-5.4ZM116.42,66L106.13,40.7,95.69,66h20.74Z" transform="translate(-25.05 -17.04)"/><path class="cls-1" d="M150.19,86.63A16.16,16.16,0,0,1,143,85a18.31,18.31,0,0,1-5.69-4.28,19.68,19.68,0,0,1-3.71-6.16,20.31,20.31,0,0,1-1.33-7.31,21.85,21.85,0,0,1,1.3-7.52,20.11,20.11,0,0,1,3.56-6.23,16.8,16.8,0,0,1,5.4-4.21,15.3,15.3,0,0,1,6.88-1.55,14.68,14.68,0,0,1,8.42,2.48,18.82,18.82,0,0,1,5.76,6V33.35h4.9V79.58q0,2,1.73,2v4.32a9.29,9.29,0,0,1-1.73.22,4.49,4.49,0,0,1-3-1.12,3.44,3.44,0,0,1-1.3-2.7V78.64a16.41,16.41,0,0,1-6,5.83A15.87,15.87,0,0,1,150.19,86.63Zm1.08-4.32a11.67,11.67,0,0,0,3.85-.72,15.8,15.8,0,0,0,3.85-2,13.27,13.27,0,0,0,3.06-3A8,8,0,0,0,163.58,73V61.43a12.9,12.9,0,0,0-2.09-3.64,16.84,16.84,0,0,0-3.13-3,14.76,14.76,0,0,0-3.78-2,11.75,11.75,0,0,0-4-.72,11.51,11.51,0,0,0-5.47,1.3,13.84,13.84,0,0,0-4.21,3.42,15.25,15.25,0,0,0-2.7,4.86,17.23,17.23,0,0,0-.94,5.62,15.73,15.73,0,0,0,4,10.55,14.26,14.26,0,0,0,4.43,3.28A12.57,12.57,0,0,0,151.27,82.31Z" transform="translate(-25.05 -17.04)"/><path class="cls-1" d="M216.86,39.26H198.64V85.91h-5V39.26H175.39V34.79h41.47v4.46Z" transform="translate(-25.05 -17.04)"/><path class="cls-1" d="M231.48,86.63A18,18,0,0,1,224,85.09,18.43,18.43,0,0,1,218,80.84a19.71,19.71,0,0,1-3.92-6.23,20.26,20.26,0,0,1-1.4-7.56,19.8,19.8,0,0,1,1.4-7.45A19.32,19.32,0,0,1,218,53.48a18.48,18.48,0,0,1,5.94-4.18,19,19,0,0,1,15,0,17.91,17.91,0,0,1,5.87,4.21A19.77,19.77,0,0,1,250,67v1.15a3,3,0,0,1-.07.79H217.8a15.8,15.8,0,0,0,1.4,5.58,15.3,15.3,0,0,0,3.06,4.43,13.69,13.69,0,0,0,4.28,2.92,12.81,12.81,0,0,0,5.15,1,13.28,13.28,0,0,0,3.6-.5A14.53,14.53,0,0,0,238.6,81a12.31,12.31,0,0,0,2.74-2.12,9.12,9.12,0,0,0,1.87-2.77l4.25,1.15A12.47,12.47,0,0,1,245,81.05a17,17,0,0,1-3.67,3A18,18,0,0,1,236.73,86,20,20,0,0,1,231.48,86.63ZM245.3,65.18a15.05,15.05,0,0,0-4.43-9.79,13.4,13.4,0,0,0-4.25-2.81,13.22,13.22,0,0,0-5.15-1,13.48,13.48,0,0,0-5.18,1A13.3,13.3,0,0,0,222,55.39a13.81,13.81,0,0,0-3,4.32,16.37,16.37,0,0,0-1.33,5.47H245.3Z" transform="translate(-25.05 -17.04)"/><path class="cls-1" d="M254.95,67.05a20.53,20.53,0,0,1,1.37-7.49,18.69,18.69,0,0,1,3.85-6.16,18,18,0,0,1,5.94-4.14,18.84,18.84,0,0,1,7.63-1.51A17.51,17.51,0,0,1,283,50.17a15.51,15.51,0,0,1,6,6.52l-4.75,1.51a11.42,11.42,0,0,0-4.43-4.5,13.06,13.06,0,0,0-11.66-.47,13.7,13.7,0,0,0-4.32,3.13A14.39,14.39,0,0,0,261,61.07a17.34,17.34,0,0,0,0,12,15.24,15.24,0,0,0,3,4.86,14.06,14.06,0,0,0,4.36,3.24,12.11,12.11,0,0,0,5.29,1.19,12.9,12.9,0,0,0,3.56-.5,13.72,13.72,0,0,0,3.28-1.4A11.75,11.75,0,0,0,283,78.35a6.66,6.66,0,0,0,1.51-2.45l4.82,1.44a12.27,12.27,0,0,1-2.3,3.71,15.86,15.86,0,0,1-3.56,3A17.46,17.46,0,0,1,279,86a19.33,19.33,0,0,1-5.15.68,18.22,18.22,0,0,1-13.54-5.8,19.71,19.71,0,0,1-3.92-6.23A20.26,20.26,0,0,1,254.95,67.05Z" transform="translate(-25.05 -17.04)"/><path class="cls-1" d="M328.6,85.91h-4.9V65q0-6.41-2.2-9.58a7.34,7.34,0,0,0-6.44-3.17,11,11,0,0,0-4.14.83,15.35,15.35,0,0,0-3.85,2.27,15.59,15.59,0,0,0-3.13,3.38,14.3,14.3,0,0,0-2,4.25v23h-4.9V33.35H302V56.9a17,17,0,0,1,6.19-6.7,16,16,0,0,1,8.57-2.45,11.53,11.53,0,0,1,5.47,1.19,10.15,10.15,0,0,1,3.67,3.31A14.51,14.51,0,0,1,328,57.37,31.15,31.15,0,0,1,328.6,64v22Z" transform="translate(-25.05 -17.04)"/><path class="cls-1" d="M256.48,49.88l-4.25-2.63a20.85,20.85,0,0,1,2.56-3.33,20.57,20.57,0,0,1,6.75-4.71,21.41,21.41,0,0,1,8.63-1.72,23.36,23.36,0,0,1,3.91.32l-0.84,4.93a18.38,18.38,0,0,0-3.07-.25,16.45,16.45,0,0,0-6.63,1.3A15.43,15.43,0,0,0,256.48,49.88Z" transform="translate(-25.05 -17.04)"/><path class="cls-1" d="M247,44.27l-4.25-2.63a31.62,31.62,0,0,1,3.9-5.07,31.27,31.27,0,0,1,10.28-7.17,32.63,32.63,0,0,1,13.16-2.62,35.71,35.71,0,0,1,6,.49l-0.84,4.93a30.73,30.73,0,0,0-5.14-.42A27.67,27.67,0,0,0,258.92,34a26.29,26.29,0,0,0-8.65,6A26.63,26.63,0,0,0,247,44.27Z" transform="translate(-25.05 -17.04)"/><path class="cls-1" d="M238.76,38.94l-4.25-2.63a41.08,41.08,0,0,1,5.06-6.57,40.56,40.56,0,0,1,13.33-9.3A42.38,42.38,0,0,1,270,17a46.52,46.52,0,0,1,7.77.63l-0.84,4.93A41.46,41.46,0,0,0,270,22a37.41,37.41,0,0,0-15.08,3,35.59,35.59,0,0,0-11.7,8.15A36,36,0,0,0,238.76,38.94Z" transform="translate(-25.05 -17.04)"/></svg>