<svg id="Layer_1" data-name="Layer 1" xmlns="http://www.w3.org/2000/svg" viewBox="0 0 309.51 108.92"><defs><style>.cls-1{fill:#fff;}</style></defs><title>logo</title><path class="cls-1" d="M70.34,85.91v-42L51.69,76.41h-3L30.09,43.94v42h-5V34.79h5.18l19.94,35,20.09-35h5.11V85.91h-5Z" transform="translate(-23.79 -17.04)"/><path class="cls-1" d="M104,34.79h4.25l21.24,51.12H124.2l-6.62-16h-23l-6.55,16h-5.4ZM116.42,66L106.13,40.7,95.69,66h20.74Z" transform="translate(-23.79 -17.04)"/><path class="cls-1" d="M150.19,86.63A16.16,16.16,0,0,1,143,85a18.31,18.31,0,0,1-5.69-4.28,19.68,19.68,0,0,1-3.71-6.16,20.31,20.31,0,0,1-1.33-7.31,21.85,21.85,0,0,1,1.3-7.52,20.11,20.11,0,0,1,3.56-6.23,16.8,16.8,0,0,1,5.4-4.21,15.3,15.3,0,0,1,6.88-1.55,14.68,14.68,0,0,1,8.42,2.48,18.82,18.82,0,0,1,5.76,6V33.35h4.9V79.58q0,2,1.73,2v4.32a9.29,9.29,0,0,1-1.73.22,4.49,4.49,0,0,1-3-1.12,3.44,3.44,0,0,1-1.3-2.7V78.64a16.41,16.41,0,0,1-6,5.83A15.87,15.87,0,0,1,150.19,86.63Zm1.08-4.32a11.67,11.67,0,0,0,3.85-.72,15.8,15.8,0,0,0,3.85-2,13.27,13.27,0,0,0,3.06-3A8,8,0,0,0,163.58,73V61.43a12.9,12.9,0,0,0-2.09-3.64,16.84,16.84,0,0,0-3.13-3,14.76,14.76,0,0,0-3.78-2,11.75,11.75,0,0,0-4-.72,11.51,11.51,0,0,0-5.47,1.3,13.84,13.84,0,0,0-4.21,3.42,15.25,15.25,0,0,0-2.7,4.86,17.23,17.23,0,0,0-.94,5.62,15.73,15.73,0,0,0,4,10.55,14.26,14.26,0,0,0,4.43,3.28A12.57,12.57,0,0,0,151.27,82.31Z" transform="translate(-23.79 -17.04)"/><path class="cls-1" d="M216.86,39.26H198.64V85.91h-5V39.26H175.39V34.79h41.47v4.46Z" transform="translate(-23.79 -17.04)"/><path class="cls-1" d="M231.48,86.63A18,18,0,0,1,224,85.09,18.43,18.43,0,0,1,218,80.84a19.71,19.71,0,0,1-3.92-6.23,20.26,20.26,0,0,1-1.4-7.56,19.8,19.8,0,0,1,1.4-7.45A19.32,19.32,0,0,1,218,53.48a18.48,18.48,0,0,1,5.94-4.18,19,19,0,0,1,15,0,17.91,17.91,0,0,1,5.87,4.21A19.77,19.77,0,0,1,250,67v1.15a3,3,0,0,1-.07.79H217.8a15.8,15.8,0,0,0,1.4,5.58,15.3,15.3,0,0,0,3.06,4.43,13.69,13.69,0,0,0,4.28,2.92,12.81,12.81,0,0,0,5.15,1,13.28,13.28,0,0,0,3.6-.5A14.53,14.53,0,0,0,238.6,81a12.31,12.31,0,0,0,2.74-2.12,9.12,9.12,0,0,0,1.87-2.77l4.25,1.15A12.47,12.47,0,0,1,245,81.05a17,17,0,0,1-3.67,3A18,18,0,0,1,236.73,86,20,20,0,0,1,231.48,86.63ZM245.3,65.18a15.05,15.05,0,0,0-4.43-9.79,13.4,13.4,0,0,0-4.25-2.81,13.22,13.22,0,0,0-5.15-1,13.48,13.48,0,0,0-5.18,1A13.3,13.3,0,0,0,222,55.39a13.81,13.81,0,0,0-3,4.32,16.37,16.37,0,0,0-1.33,5.47H245.3Z" transform="translate(-23.79 -17.04)"/><path class="cls-1" d="M254.95,67.05a20.53,20.53,0,0,1,1.37-7.49,18.69,18.69,0,0,1,3.85-6.16,18,18,0,0,1,5.94-4.14,18.84,18.84,0,0,1,7.63-1.51A17.51,17.51,0,0,1,283,50.17a15.51,15.51,0,0,1,6,6.52l-4.75,1.51a11.42,11.42,0,0,0-4.43-4.5,13.06,13.06,0,0,0-11.66-.47,13.7,13.7,0,0,0-4.32,3.13A14.39,14.39,0,0,0,261,61.07a17.34,17.34,0,0,0,0,12,15.24,15.24,0,0,0,3,4.86,14.06,14.06,0,0,0,4.36,3.24,12.11,12.11,0,0,0,5.29,1.19,12.9,12.9,0,0,0,3.56-.5,13.72,13.72,0,0,0,3.28-1.4A11.75,11.75,0,0,0,283,78.35a6.66,6.66,0,0,0,1.51-2.45l4.82,1.44a12.27,12.27,0,0,1-2.3,3.71,15.86,15.86,0,0,1-3.56,3A17.46,17.46,0,0,1,279,86a19.33,19.33,0,0,1-5.15.68,18.22,18.22,0,0,1-13.54-5.8,19.71,19.71,0,0,1-3.92-6.23A20.26,20.26,0,0,1,254.95,67.05Z" transform="translate(-23.79 -17.04)"/><path class="cls-1" d="M328.6,85.91h-4.9V65q0-6.41-2.2-9.58a7.34,7.34,0,0,0-6.44-3.17,11,11,0,0,0-4.14.83,15.35,15.35,0,0,0-3.85,2.27,15.59,15.59,0,0,0-3.13,3.38,14.3,14.3,0,0,0-2,4.25v23h-4.9V33.35H302V56.9a17,17,0,0,1,6.19-6.7,16,16,0,0,1,8.57-2.45,11.53,11.53,0,0,1,5.47,1.19,10.15,10.15,0,0,1,3.67,3.31A14.51,14.51,0,0,1,328,57.37,31.15,31.15,0,0,1,328.6,64v22Z" transform="translate(-23.79 -17.04)"/><rect class="cls-1" x="23.79" y="95.97" width="309.5" height="2" transform="translate(-23.98 -16.69) rotate(-0.11)"/><path class="cls-1" d="M36.39,121.5V109.84l-5.18,9H30.39l-5.18-9V121.5h-1.4V107.3h1.44L30.79,117l5.58-9.72h1.42v14.2h-1.4Z" transform="translate(-23.79 -17.04)"/><path class="cls-1" d="M45.43,121.7a5,5,0,0,1-2.09-.43,5.12,5.12,0,0,1-1.65-1.18,5.48,5.48,0,0,1-1.09-1.73,5.63,5.63,0,0,1-.39-2.1,5.5,5.5,0,0,1,.39-2.07,5.37,5.37,0,0,1,1.08-1.7,5.12,5.12,0,0,1,1.65-1.16,5.27,5.27,0,0,1,4.17,0,5,5,0,0,1,1.63,1.17,5.5,5.5,0,0,1,1.44,3.74v0.32a0.8,0.8,0,0,1,0,.22H41.63a4.39,4.39,0,0,0,.39,1.55,4.27,4.27,0,0,0,.85,1.23,3.81,3.81,0,0,0,1.19.81,3.56,3.56,0,0,0,1.43.29,3.7,3.7,0,0,0,1-.14,4.06,4.06,0,0,0,.92-0.38,3.44,3.44,0,0,0,.76-0.59,2.52,2.52,0,0,0,.52-0.77l1.18,0.32a3.46,3.46,0,0,1-.68,1,4.74,4.74,0,0,1-1,.82,5,5,0,0,1-1.28.54A5.54,5.54,0,0,1,45.43,121.7Zm3.84-6a4.22,4.22,0,0,0-.39-1.53A4.17,4.17,0,0,0,48,113a3.72,3.72,0,0,0-1.18-.78,3.67,3.67,0,0,0-1.43-.28,3.74,3.74,0,0,0-1.44.28,3.68,3.68,0,0,0-1.19.78,3.83,3.83,0,0,0-.82,1.2,4.55,4.55,0,0,0-.37,1.52h7.66Z" transform="translate(-23.79 -17.04)"/><path class="cls-1" d="M56.95,121.7a4.49,4.49,0,0,1-2-.45,5.09,5.09,0,0,1-1.58-1.19,5.46,5.46,0,0,1-1-1.71,5.65,5.65,0,0,1-.37-2,6.06,6.06,0,0,1,.36-2.09,5.58,5.58,0,0,1,1-1.73,4.66,4.66,0,0,1,1.5-1.17,4.25,4.25,0,0,1,1.91-.43,4.08,4.08,0,0,1,2.34.69,5.23,5.23,0,0,1,1.6,1.67V106.9H62v12.84a0.46,0.46,0,0,0,.48.56v1.2a2.57,2.57,0,0,1-.48.06,1.25,1.25,0,0,1-.84-0.31,1,1,0,0,1-.36-0.75v-1a4.56,4.56,0,0,1-1.68,1.62A4.41,4.41,0,0,1,56.95,121.7Zm0.3-1.2a3.23,3.23,0,0,0,1.07-.2,4.38,4.38,0,0,0,1.07-.55,3.68,3.68,0,0,0,.85-0.82,2.22,2.22,0,0,0,.43-1V114.7a3.57,3.57,0,0,0-.58-1,4.69,4.69,0,0,0-.87-0.83,4.11,4.11,0,0,0-1-.56,3.27,3.27,0,0,0-1.1-.2,3.2,3.2,0,0,0-1.52.36,3.85,3.85,0,0,0-1.17,1,4.24,4.24,0,0,0-.75,1.35,4.79,4.79,0,0,0-.26,1.56,4.37,4.37,0,0,0,1.12,2.93,4,4,0,0,0,1.23.91A3.5,3.5,0,0,0,57.25,120.5Z" transform="translate(-23.79 -17.04)"/><path class="cls-1" d="M65.11,108.9v-2h1.36v2H65.11Zm0,12.6V111.08h1.36V121.5H65.11Z" transform="translate(-23.79 -17.04)"/><path class="cls-1" d="M72.09,121.7a3.68,3.68,0,0,1-1.37-.25,3.46,3.46,0,0,1-1.1-.69,3.11,3.11,0,0,1-1-2.3,2.57,2.57,0,0,1,.32-1.26,3,3,0,0,1,.9-1,4.41,4.41,0,0,1,1.38-.65,6.37,6.37,0,0,1,1.76-.23,9.62,9.62,0,0,1,1.62.14,7.05,7.05,0,0,1,1.46.4v-0.94a3,3,0,0,0-.78-2.19,2.86,2.86,0,0,0-2.16-.81,4.59,4.59,0,0,0-1.64.32,7.89,7.89,0,0,0-1.7.92l-0.48-.9a7,7,0,0,1,3.92-1.36,4.21,4.21,0,0,1,3.08,1.1,4.07,4.07,0,0,1,1.12,3v4.7a0.47,0.47,0,0,0,.5.56v1.2a3.24,3.24,0,0,1-.52.06,1.17,1.17,0,0,1-.81-0.26,1,1,0,0,1-.31-0.72l0-.82a4.73,4.73,0,0,1-1.81,1.44A5.58,5.58,0,0,1,72.09,121.7Zm0.32-1a4.7,4.7,0,0,0,2-.4,3.19,3.19,0,0,0,1.35-1.06,1.24,1.24,0,0,0,.27-0.39,1,1,0,0,0,.09-0.39v-1.7a8.38,8.38,0,0,0-1.41-.4,7.94,7.94,0,0,0-1.49-.14,4.15,4.15,0,0,0-2.34.6,1.82,1.82,0,0,0-.9,1.58,2.15,2.15,0,0,0,.19.9,2.28,2.28,0,0,0,.52.73,2.44,2.44,0,0,0,.79.49A2.66,2.66,0,0,0,72.41,120.66Z" transform="translate(-23.79 -17.04)"/><path class="cls-1" d="M104.82,107.3H106l5.9,14.2h-1.48l-1.84-4.44H102.2l-1.82,4.44h-1.5Zm3.44,8.66-2.86-7-2.9,7h5.76Z" transform="translate(-23.79 -17.04)"/><path class="cls-1" d="M117.64,121.7a4.49,4.49,0,0,1-2-.45,5.09,5.09,0,0,1-1.58-1.19,5.46,5.46,0,0,1-1-1.71,5.65,5.65,0,0,1-.37-2,6.06,6.06,0,0,1,.36-2.09,5.58,5.58,0,0,1,1-1.73,4.66,4.66,0,0,1,1.5-1.17,4.25,4.25,0,0,1,1.91-.43,4.08,4.08,0,0,1,2.34.69,5.23,5.23,0,0,1,1.6,1.67V106.9h1.36v12.84a0.46,0.46,0,0,0,.48.56v1.2a2.57,2.57,0,0,1-.48.06,1.25,1.25,0,0,1-.84-0.31,1,1,0,0,1-.36-0.75v-1a4.56,4.56,0,0,1-1.68,1.62A4.41,4.41,0,0,1,117.64,121.7Zm0.3-1.2a3.23,3.23,0,0,0,1.07-.2,4.38,4.38,0,0,0,1.07-.55,3.68,3.68,0,0,0,.85-0.82,2.22,2.22,0,0,0,.43-1V114.7a3.57,3.57,0,0,0-.58-1,4.69,4.69,0,0,0-.87-0.83,4.11,4.11,0,0,0-1-.56,3.27,3.27,0,0,0-1.1-.2,3.2,3.2,0,0,0-1.52.36,3.85,3.85,0,0,0-1.17,1,4.24,4.24,0,0,0-.75,1.35,4.79,4.79,0,0,0-.26,1.56,4.37,4.37,0,0,0,1.12,2.93,4,4,0,0,0,1.23.91A3.5,3.5,0,0,0,117.95,120.5Z" transform="translate(-23.79 -17.04)"/><path class="cls-1" d="M128.93,121.5l-4.24-10.42h1.4l3.58,9.16,3.6-9.16h1.32l-4.24,10.42h-1.42Z" transform="translate(-23.79 -17.04)"/><path class="cls-1" d="M140.6,121.7a5,5,0,0,1-2.09-.43,5.12,5.12,0,0,1-1.65-1.18,5.48,5.48,0,0,1-1.09-1.73,5.63,5.63,0,0,1-.39-2.1,5.5,5.5,0,0,1,.39-2.07,5.37,5.37,0,0,1,1.08-1.7,5.12,5.12,0,0,1,1.65-1.16,5.27,5.27,0,0,1,4.17,0,5,5,0,0,1,1.63,1.17,5.5,5.5,0,0,1,1.44,3.74v0.32a0.8,0.8,0,0,1,0,.22H136.8a4.39,4.39,0,0,0,.39,1.55,4.27,4.27,0,0,0,.85,1.23,3.81,3.81,0,0,0,1.19.81,3.56,3.56,0,0,0,1.43.29,3.7,3.7,0,0,0,1-.14,4.06,4.06,0,0,0,.92-0.38,3.44,3.44,0,0,0,.76-0.59,2.52,2.52,0,0,0,.52-0.77L145,119.1a3.46,3.46,0,0,1-.68,1,4.74,4.74,0,0,1-1,.82,5,5,0,0,1-1.28.54A5.54,5.54,0,0,1,140.6,121.7Zm3.84-6a4.22,4.22,0,0,0-.39-1.53,4.17,4.17,0,0,0-.84-1.19,3.72,3.72,0,0,0-1.18-.78,3.67,3.67,0,0,0-1.43-.28,3.74,3.74,0,0,0-1.44.28A3.68,3.68,0,0,0,138,113a3.83,3.83,0,0,0-.82,1.2,4.55,4.55,0,0,0-.37,1.52h7.66Z" transform="translate(-23.79 -17.04)"/><path class="cls-1" d="M153,112.28a4.28,4.28,0,0,0-2.4.76,3.84,3.84,0,0,0-1.44,2v6.48h-1.36V111.08h1.28v2.5a4.74,4.74,0,0,1,1.56-1.88,3.62,3.62,0,0,1,2.1-.68l0.26,0v1.24Z" transform="translate(-23.79 -17.04)"/><path class="cls-1" d="M159.86,121l-0.35.16-0.53.2a6.14,6.14,0,0,1-.68.18,3.88,3.88,0,0,1-.8.08,2.91,2.91,0,0,1-.84-0.12,2,2,0,0,1-.7-0.37,1.82,1.82,0,0,1-.48-0.63,2,2,0,0,1-.18-0.88v-7.46h-1.44v-1.08h1.44v-3.52h1.36v3.52h2.4v1.08h-2.4v7.08a1.08,1.08,0,0,0,.41.85,1.4,1.4,0,0,0,.85.27,2.55,2.55,0,0,0,1-.19,4.44,4.44,0,0,0,.56-0.27Z" transform="translate(-23.79 -17.04)"/><path class="cls-1" d="M161.56,108.9v-2h1.36v2h-1.36Zm0,12.6V111.08h1.36V121.5h-1.36Z" transform="translate(-23.79 -17.04)"/><path class="cls-1" d="M169.38,121.7a7.25,7.25,0,0,1-2.38-.4,5.72,5.72,0,0,1-2-1.16l0.62-.92a6.76,6.76,0,0,0,1.79,1.08,5.25,5.25,0,0,0,1.95.36,3.52,3.52,0,0,0,2-.51,1.65,1.65,0,0,0,.75-1.45,1.26,1.26,0,0,0-.2-0.73,1.74,1.74,0,0,0-.59-0.51,4.65,4.65,0,0,0-1-.39q-0.59-.17-1.37-0.35t-1.56-.44a4.75,4.75,0,0,1-1.09-.5,1.8,1.8,0,0,1-.64-0.69,2.24,2.24,0,0,1-.21-1,3,3,0,0,1,.31-1.38,2.81,2.81,0,0,1,.84-1,3.82,3.82,0,0,1,1.24-.59,5.54,5.54,0,0,1,1.51-.2,5.85,5.85,0,0,1,2.18.39,4.32,4.32,0,0,1,1.58,1l-0.66.8a3.66,3.66,0,0,0-1.41-.9,5,5,0,0,0-1.73-.3,4.33,4.33,0,0,0-1,.11,2.42,2.42,0,0,0-.81.35,1.73,1.73,0,0,0-.55.61,1.8,1.8,0,0,0-.2.87,1.43,1.43,0,0,0,.14.68,1.2,1.2,0,0,0,.46.45,3.76,3.76,0,0,0,.81.34q0.49,0.15,1.19.31,1,0.24,1.76.48a5.52,5.52,0,0,1,1.27.56,2.21,2.21,0,0,1,.77.78,2.25,2.25,0,0,1,.26,1.12,2.72,2.72,0,0,1-1.1,2.28A4.76,4.76,0,0,1,169.38,121.7Z" transform="translate(-23.79 -17.04)"/><path class="cls-1" d="M175.66,108.9v-2H177v2h-1.36Zm0,12.6V111.08H177V121.5h-1.36Z" transform="translate(-23.79 -17.04)"/><path class="cls-1" d="M188.78,121.5h-1.36v-5.82a5.08,5.08,0,0,0-.55-2.7,1.88,1.88,0,0,0-1.69-.84,3.47,3.47,0,0,0-1.2.22,4.05,4.05,0,0,0-1.11.62,4.75,4.75,0,0,0-.91,1,3.73,3.73,0,0,0-.58,1.19v6.38H180V111.08h1.24v2.36a4.89,4.89,0,0,1,1.83-1.84,5,5,0,0,1,2.59-.7,3.07,3.07,0,0,1,1.46.32,2.49,2.49,0,0,1,1,.9,4.16,4.16,0,0,1,.52,1.42,10,10,0,0,1,.16,1.86v6.1Z" transform="translate(-23.79 -17.04)"/><path class="cls-1" d="M195.86,121.64a4.29,4.29,0,0,1-2-.45,5.07,5.07,0,0,1-1.54-1.19,5.45,5.45,0,0,1-1-1.7,5.59,5.59,0,0,1-.36-2,6.16,6.16,0,0,1,.35-2.07,5.3,5.3,0,0,1,1-1.73,4.82,4.82,0,0,1,1.53-1.18,4.39,4.39,0,0,1,2-.44,4,4,0,0,1,2.32.67,6.46,6.46,0,0,1,1.68,1.69v-2.18H201v10.46a4.29,4.29,0,0,1-.41,1.91,4.1,4.1,0,0,1-1.1,1.39,4.69,4.69,0,0,1-1.62.84,6.8,6.8,0,0,1-2,.28,5.73,5.73,0,0,1-2.9-.64,5.11,5.11,0,0,1-1.78-1.72l0.84-.66a3.76,3.76,0,0,0,1.64,1.47,5.19,5.19,0,0,0,2.2.47,4.86,4.86,0,0,0,1.44-.21,3.55,3.55,0,0,0,1.19-.62,2.94,2.94,0,0,0,.81-1,3.39,3.39,0,0,0,.3-1.47v-2.06a4.35,4.35,0,0,1-1.64,1.58A4.41,4.41,0,0,1,195.86,121.64Zm0.38-1.14a3.29,3.29,0,0,0,1.18-.22,4,4,0,0,0,1.05-.59,3.86,3.86,0,0,0,.79-0.83,2.56,2.56,0,0,0,.42-0.94V114.7a4,4,0,0,0-.6-1,4.17,4.17,0,0,0-.86-0.82,4.37,4.37,0,0,0-1-.54,3.23,3.23,0,0,0-1.11-.2,3.28,3.28,0,0,0-1.57.37,3.77,3.77,0,0,0-1.17,1,4.34,4.34,0,0,0-.73,1.36,4.92,4.92,0,0,0-.25,1.54,4.33,4.33,0,0,0,.3,1.6,4.17,4.17,0,0,0,.83,1.33,4,4,0,0,0,1.23.9A3.51,3.51,0,0,0,196.24,120.5Z" transform="translate(-23.79 -17.04)"/><path class="cls-1" d="M234.24,108.54h-5.06v13h-1.4v-13h-5.06V107.3h11.52v1.24Z" transform="translate(-23.79 -17.04)"/><path class="cls-1" d="M238.3,121.7a5,5,0,0,1-2.09-.43,5.12,5.12,0,0,1-1.65-1.18,5.47,5.47,0,0,1-1.09-1.73,5.63,5.63,0,0,1-.39-2.1,5.5,5.5,0,0,1,.39-2.07,5.36,5.36,0,0,1,1.08-1.7,5.12,5.12,0,0,1,1.65-1.16,5.07,5.07,0,0,1,5.8,1.17,5.5,5.5,0,0,1,1.44,3.74v0.32a0.83,0.83,0,0,1,0,.22H234.5a4.39,4.39,0,0,0,.39,1.55,4.24,4.24,0,0,0,.85,1.23,3.8,3.8,0,0,0,1.19.81,3.56,3.56,0,0,0,1.43.29,3.69,3.69,0,0,0,1-.14,4.05,4.05,0,0,0,.92-0.38,3.46,3.46,0,0,0,.76-0.59,2.53,2.53,0,0,0,.52-0.77l1.18,0.32a3.47,3.47,0,0,1-.68,1,4.73,4.73,0,0,1-1,.82,5,5,0,0,1-1.28.54A5.54,5.54,0,0,1,238.3,121.7Zm3.84-6a4.22,4.22,0,0,0-.39-1.53,4.16,4.16,0,0,0-.84-1.19,3.72,3.72,0,0,0-1.18-.78,3.66,3.66,0,0,0-1.43-.28,3.74,3.74,0,0,0-1.44.28,3.69,3.69,0,0,0-1.19.78,3.84,3.84,0,0,0-.82,1.2,4.53,4.53,0,0,0-.37,1.52h7.66Z" transform="translate(-23.79 -17.04)"/><path class="cls-1" d="M244.82,116.26a5.69,5.69,0,0,1,.38-2.08,5.17,5.17,0,0,1,1.07-1.71,5,5,0,0,1,1.65-1.15,5.24,5.24,0,0,1,2.12-.42,4.87,4.87,0,0,1,2.58.67,4.31,4.31,0,0,1,1.66,1.81l-1.32.42a3.17,3.17,0,0,0-1.23-1.25,3.63,3.63,0,0,0-3.24-.13,3.8,3.8,0,0,0-1.2.87,4,4,0,0,0-.8,1.31,4.82,4.82,0,0,0,0,3.32,4.24,4.24,0,0,0,.82,1.35,3.9,3.9,0,0,0,1.21.9,3.36,3.36,0,0,0,1.47.33,3.58,3.58,0,0,0,1-.14,3.82,3.82,0,0,0,.91-0.39,3.3,3.3,0,0,0,.72-0.57,1.85,1.85,0,0,0,.42-0.68l1.34,0.4a3.39,3.39,0,0,1-.64,1,4.42,4.42,0,0,1-1,.82,4.85,4.85,0,0,1-1.26.54,5.36,5.36,0,0,1-1.43.19,5.06,5.06,0,0,1-3.76-1.61,5.47,5.47,0,0,1-1.09-1.73A5.63,5.63,0,0,1,244.82,116.26Z" transform="translate(-23.79 -17.04)"/><path class="cls-1" d="M265.28,121.5h-1.36v-5.82a4.7,4.7,0,0,0-.61-2.66,2,2,0,0,0-1.79-.88,3.06,3.06,0,0,0-1.15.23,4.25,4.25,0,0,0-1.07.63,4.31,4.31,0,0,0-.87.94,4,4,0,0,0-.55,1.18v6.38h-1.36V106.9h1.36v6.54a4.72,4.72,0,0,1,1.72-1.86,4.45,4.45,0,0,1,2.38-.68,3.2,3.2,0,0,1,1.52.33,2.82,2.82,0,0,1,1,.92,4,4,0,0,1,.58,1.42,8.64,8.64,0,0,1,.18,1.83v6.1Z" transform="translate(-23.79 -17.04)"/><path class="cls-1" d="M276.94,121.5h-1.36v-5.82A5.07,5.07,0,0,0,275,113a1.88,1.88,0,0,0-1.69-.84,3.47,3.47,0,0,0-1.2.22A4.06,4.06,0,0,0,271,113a4.76,4.76,0,0,0-.91,1,3.71,3.71,0,0,0-.58,1.19v6.38h-1.36V111.08h1.24v2.36a4.89,4.89,0,0,1,1.83-1.84,5,5,0,0,1,2.59-.7,3.07,3.07,0,0,1,1.46.32,2.5,2.5,0,0,1,1,.9,4.14,4.14,0,0,1,.52,1.42,9.91,9.91,0,0,1,.16,1.86v6.1Z" transform="translate(-23.79 -17.04)"/><path class="cls-1" d="M284.28,121.7a4.94,4.94,0,0,1-2.08-.43,5.11,5.11,0,0,1-1.63-1.17,5.29,5.29,0,0,1-1.07-1.72,5.63,5.63,0,0,1-.38-2.06,5.58,5.58,0,0,1,.39-2.08,5.45,5.45,0,0,1,1.08-1.72,5.25,5.25,0,0,1,1.63-1.18,4.81,4.81,0,0,1,2.06-.44,4.87,4.87,0,0,1,2.07.44,5.21,5.21,0,0,1,1.64,1.18,5.47,5.47,0,0,1,1.08,1.72,5.58,5.58,0,0,1,.39,2.08,5.65,5.65,0,0,1-.38,2.06A5.32,5.32,0,0,1,288,120.1a5.09,5.09,0,0,1-1.64,1.17A5,5,0,0,1,284.28,121.7Zm-3.78-5.36a4.35,4.35,0,0,0,.3,1.63,4.43,4.43,0,0,0,.81,1.32,3.67,3.67,0,0,0,1.2.89,3.45,3.45,0,0,0,1.47.32,3.36,3.36,0,0,0,1.47-.33,3.9,3.9,0,0,0,1.21-.9,4.29,4.29,0,0,0,.82-1.33,4.61,4.61,0,0,0,0-3.27,4.26,4.26,0,0,0-.82-1.34,3.9,3.9,0,0,0-1.21-.9,3.36,3.36,0,0,0-1.47-.33,3.29,3.29,0,0,0-1.46.33,3.86,3.86,0,0,0-1.2.91,4.4,4.4,0,0,0-.82,1.35A4.5,4.5,0,0,0,280.5,116.34Z" transform="translate(-23.79 -17.04)"/><path class="cls-1" d="M291.8,106.9h1.36v12.24a1.25,1.25,0,0,0,.32.91,1.19,1.19,0,0,0,.9.33,2.71,2.71,0,0,0,.52-0.06,3.39,3.39,0,0,0,.56-0.16l0.24,1.1a4.45,4.45,0,0,1-.93.26,5.45,5.45,0,0,1-1,.1,2,2,0,0,1-1.48-.53,2,2,0,0,1-.54-1.49V106.9Z" transform="translate(-23.79 -17.04)"/><path class="cls-1" d="M301.62,121.7a4.94,4.94,0,0,1-2.08-.43,5.11,5.11,0,0,1-1.63-1.17,5.29,5.29,0,0,1-1.07-1.72,5.63,5.63,0,0,1-.38-2.06,5.58,5.58,0,0,1,.39-2.08,5.45,5.45,0,0,1,1.08-1.72,5.25,5.25,0,0,1,1.63-1.18,4.81,4.81,0,0,1,2.06-.44,4.87,4.87,0,0,1,2.07.44,5.21,5.21,0,0,1,1.64,1.18,5.47,5.47,0,0,1,1.08,1.72,5.58,5.58,0,0,1,.39,2.08,5.65,5.65,0,0,1-.38,2.06,5.32,5.32,0,0,1-1.07,1.72,5.09,5.09,0,0,1-1.64,1.17A5,5,0,0,1,301.62,121.7Zm-3.78-5.36a4.35,4.35,0,0,0,.3,1.63,4.43,4.43,0,0,0,.81,1.32,3.67,3.67,0,0,0,1.2.89,3.45,3.45,0,0,0,1.47.32,3.36,3.36,0,0,0,1.47-.33,3.9,3.9,0,0,0,1.21-.9,4.29,4.29,0,0,0,.82-1.33,4.61,4.61,0,0,0,0-3.27,4.26,4.26,0,0,0-.82-1.34,3.9,3.9,0,0,0-1.21-.9,3.36,3.36,0,0,0-1.47-.33,3.29,3.29,0,0,0-1.46.33,3.86,3.86,0,0,0-1.2.91,4.4,4.4,0,0,0-.82,1.35A4.5,4.5,0,0,0,297.84,116.34Z" transform="translate(-23.79 -17.04)"/><path class="cls-1" d="M313.26,121.64a4.3,4.3,0,0,1-2-.45,5.07,5.07,0,0,1-1.54-1.19,5.45,5.45,0,0,1-1-1.7,5.59,5.59,0,0,1-.36-2,6.16,6.16,0,0,1,.35-2.07,5.31,5.31,0,0,1,1-1.73,4.83,4.83,0,0,1,1.53-1.18,4.39,4.39,0,0,1,2-.44,4,4,0,0,1,2.32.67,6.45,6.45,0,0,1,1.68,1.69v-2.18h1.22v10.46a4.27,4.27,0,0,1-.41,1.91,4.11,4.11,0,0,1-1.1,1.39,4.69,4.69,0,0,1-1.62.84,6.81,6.81,0,0,1-2,.28,5.73,5.73,0,0,1-2.9-.64,5.11,5.11,0,0,1-1.78-1.72l0.84-.66a3.75,3.75,0,0,0,1.64,1.47,5.2,5.2,0,0,0,2.2.47,4.85,4.85,0,0,0,1.44-.21,3.55,3.55,0,0,0,1.19-.62,2.92,2.92,0,0,0,.81-1,3.38,3.38,0,0,0,.3-1.47v-2.06a4.35,4.35,0,0,1-1.64,1.58A4.41,4.41,0,0,1,313.26,121.64Zm0.38-1.14a3.3,3.3,0,0,0,1.18-.22,3.93,3.93,0,0,0,1-.59,3.86,3.86,0,0,0,.79-0.83,2.56,2.56,0,0,0,.42-0.94V114.7a4.06,4.06,0,0,0-.6-1,4.18,4.18,0,0,0-.86-0.82,4.36,4.36,0,0,0-1-.54,3.23,3.23,0,0,0-1.11-.2,3.27,3.27,0,0,0-1.57.37,3.75,3.75,0,0,0-1.17,1,4.32,4.32,0,0,0-.73,1.36,4.89,4.89,0,0,0-.25,1.54,4.31,4.31,0,0,0,.3,1.6,4.19,4.19,0,0,0,.83,1.33,4,4,0,0,0,1.23.9A3.51,3.51,0,0,0,313.64,120.5Z" transform="translate(-23.79 -17.04)"/><path class="cls-1" d="M322,124.7l0.31,0h0.29a1.34,1.34,0,0,0,.57-0.1,1.05,1.05,0,0,0,.41-0.44,7.19,7.19,0,0,0,.45-1q0.25-.64.71-1.72l-4.54-10.42h1.4l3.86,9.16,3.58-9.16h1.3L325,124.52a2.44,2.44,0,0,1-.73,1,2.09,2.09,0,0,1-1.39.43h-0.38L322,125.9v-1.2Z" transform="translate(-23.79 -17.04)"/><circle class="cls-1" cx="189.16" cy="98.05" r="2.25"/><circle class="cls-1" cx="64.61" cy="98.5" r="2.25"/><path class="cls-1" d="M256.48,49.88l-4.25-2.63a20.85,20.85,0,0,1,2.56-3.33,20.57,20.57,0,0,1,6.75-4.71,21.41,21.41,0,0,1,8.63-1.72,23.36,23.36,0,0,1,3.91.32l-0.84,4.93a18.38,18.38,0,0,0-3.07-.25,16.45,16.45,0,0,0-6.63,1.3A15.43,15.43,0,0,0,256.48,49.88Z" transform="translate(-23.79 -17.04)"/><path class="cls-1" d="M247,44.27l-4.25-2.63a31.62,31.62,0,0,1,3.9-5.07,31.27,31.27,0,0,1,10.28-7.17,32.63,32.63,0,0,1,13.16-2.62,35.71,35.71,0,0,1,6,.49l-0.84,4.93a30.73,30.73,0,0,0-5.14-.42A27.67,27.67,0,0,0,258.92,34a26.29,26.29,0,0,0-8.65,6A26.63,26.63,0,0,0,247,44.27Z" transform="translate(-23.79 -17.04)"/><path class="cls-1" d="M238.76,38.94l-4.25-2.63a41.08,41.08,0,0,1,5.06-6.57,40.56,40.56,0,0,1,13.33-9.3A42.38,42.38,0,0,1,270,17a46.52,46.52,0,0,1,7.77.63l-0.84,4.93A41.46,41.46,0,0,0,270,22a37.41,37.41,0,0,0-15.08,3,35.59,35.59,0,0,0-11.7,8.15A36,36,0,0,0,238.76,38.94Z" transform="translate(-23.79 -17.04)"/></svg>